<?xml version="1.0" encoding="UTF-8" standalone="no"?>
<svg
   xmlns:dc="http://purl.org/dc/elements/1.1/"
   xmlns:cc="http://creativecommons.org/ns#"
   xmlns:rdf="http://www.w3.org/1999/02/22-rdf-syntax-ns#"
   xmlns:svg="http://www.w3.org/2000/svg"
   xmlns="http://www.w3.org/2000/svg"
   xmlns:sodipodi="http://sodipodi.sourceforge.net/DTD/sodipodi-0.dtd"
   xmlns:inkscape="http://www.inkscape.org/namespaces/inkscape"
   version="1.1"
   x="0px"
   y="0px"
   viewBox="0 0 90 112.5"
   enable-background="new 0 0 90 90"
   xml:space="preserve"
   id="svg3039"
   inkscape:version="0.48.5 r10040"
   width="100%"
   height="100%"
   sodipodi:docname="heart-white.svg"><metadata
     id="metadata3053"><rdf:RDF><cc:Work
         rdf:about=""><dc:format>image/svg+xml</dc:format><dc:type
           rdf:resource="http://purl.org/dc/dcmitype/StillImage" /><dc:title></dc:title></cc:Work></rdf:RDF></metadata><defs
     id="defs3051" /><sodipodi:namedview
     pagecolor="#ffffff"
     bordercolor="#666666"
     borderopacity="1"
     objecttolerance="10"
     gridtolerance="10"
     guidetolerance="10"
     inkscape:pageopacity="0"
     inkscape:pageshadow="2"
     inkscape:window-width="1280"
     inkscape:window-height="703"
     id="namedview3049"
     showgrid="false"
     inkscape:zoom="2.0977778"
     inkscape:cx="65.021185"
     inkscape:cy="75.317796"
     inkscape:window-x="0"
     inkscape:window-y="0"
     inkscape:window-maximized="1"
     inkscape:current-layer="svg3039" /><g
     id="g3041"
     style="stroke:#000000;stroke-opacity:1;fill:#000000;fill-opacity:1"><path
       d="M44.905,85.779l-1.253-0.77C41.871,83.912,0,57.839,0,29.387C0,15.12,11.607,3.514,25.875,3.514   c7.304,0,14.25,3.121,19.126,8.478c4.876-5.357,11.824-8.478,19.125-8.478c14.268,0,25.873,11.606,25.873,25.873   c0,28.907-42.045,54.557-43.835,55.633L44.905,85.779z M25.875,8.346c-11.602,0-21.042,9.438-21.042,21.041   c0,23.206,33.174,46.165,40.097,50.7c6.951-4.474,40.236-27.135,40.236-50.7c0-11.602-9.437-21.041-21.04-21.041   c-6.792,0-13.203,3.323-17.156,8.89l-1.969,2.775l-1.971-2.775C39.079,11.669,32.666,8.346,25.875,8.346z"
       id="path3043"
       style="stroke:#ffffff;stroke-opacity:1;fill:#ffffff;fill-opacity:1" /></g><path
     style="fill:#ff0000;fill-opacity:1;stroke:#ff0000;stroke-width:0.04766949000000000;stroke-linejoin:miter;stroke-miterlimit:4;stroke-opacity:1;stroke-dasharray:none;stroke-dashoffset:0"
     d="M 38.780133,74.729626 C 20.906096,61.368488 9.0748335,47.002403 6.3659363,35.370763 3.2832596,22.134164 11.651018,10.293257 24.80066,9.2844634 c 6.652379,-0.5103467 13.089547,2.5978086 17.527579,8.4631056 1.283445,1.6962 2.485737,3.083999 2.67176,3.083999 0.186023,0 1.388315,-1.387799 2.67176,-3.083999 4.438032,-5.865297 10.875199,-8.9734523 17.527577,-8.4631056 6.545402,0.5021398 12.078285,3.6583826 15.610042,8.9047776 9.653348,14.339966 -1.247844,35.432699 -28.982675,56.078611 -7.605698,5.66171 -6.158795,5.610499 -13.04657,0.461774 l 0,0 z"
     id="path3765"
     inkscape:connector-curvature="0" /></svg>