<?xml version="1.0" encoding="UTF-8" standalone="no"?>
<svg
   xmlns:dc="http://purl.org/dc/elements/1.1/"
   xmlns:cc="http://creativecommons.org/ns#"
   xmlns:rdf="http://www.w3.org/1999/02/22-rdf-syntax-ns#"
   xmlns:svg="http://www.w3.org/2000/svg"
   xmlns="http://www.w3.org/2000/svg"
   xmlns:sodipodi="http://sodipodi.sourceforge.net/DTD/sodipodi-0.dtd"
   xmlns:inkscape="http://www.inkscape.org/namespaces/inkscape"
   version="1.1"
   x="0px"
   y="0px"
   viewBox="0 0 90 112.5"
   enable-background="new 0 0 90 90"
   xml:space="preserve"
   id="svg3039"
   inkscape:version="0.48.5 r10040"
   width="100%"
   height="100%"
   sodipodi:docname="noun_38428_cc.svg"><metadata
     id="metadata3053"><rdf:RDF><cc:Work
         rdf:about=""><dc:format>image/svg+xml</dc:format><dc:type
           rdf:resource="http://purl.org/dc/dcmitype/StillImage" /><dc:title></dc:title></cc:Work></rdf:RDF></metadata><defs
     id="defs3051" /><sodipodi:namedview
     pagecolor="#ffffff"
     bordercolor="#666666"
     borderopacity="1"
     objecttolerance="10"
     gridtolerance="10"
     guidetolerance="10"
     inkscape:pageopacity="0"
     inkscape:pageshadow="2"
     inkscape:window-width="1280"
     inkscape:window-height="703"
     id="namedview3049"
     showgrid="false"
     inkscape:zoom="2.0977778"
     inkscape:cx="-40.32839"
     inkscape:cy="56.25"
     inkscape:window-x="0"
     inkscape:window-y="0"
     inkscape:window-maximized="1"
     inkscape:current-layer="svg3039" /><g
     id="g3041"><path
       d="M44.905,85.779l-1.253-0.77C41.871,83.912,0,57.839,0,29.387C0,15.12,11.607,3.514,25.875,3.514   c7.304,0,14.25,3.121,19.126,8.478c4.876-5.357,11.824-8.478,19.125-8.478c14.268,0,25.873,11.606,25.873,25.873   c0,28.907-42.045,54.557-43.835,55.633L44.905,85.779z M25.875,8.346c-11.602,0-21.042,9.438-21.042,21.041   c0,23.206,33.174,46.165,40.097,50.7c6.951-4.474,40.236-27.135,40.236-50.7c0-11.602-9.437-21.041-21.04-21.041   c-6.792,0-13.203,3.323-17.156,8.89l-1.969,2.775l-1.971-2.775C39.079,11.669,32.666,8.346,25.875,8.346z"
       id="path3043"
       style="stroke:#ffffff;stroke-opacity:1;fill:#ffffff;fill-opacity:1" /></g></svg>